<svg width="26" height="28" viewBox="0 0 26 28" fill="none" xmlns="http://www.w3.org/2000/svg">
<path d="M19 11H16V10C16 8.93913 15.5786 7.92172 14.8284 7.17157C14.0783 6.42143 13.0609 6 12 6C10.9391 6 9.92172 6.42143 9.17157 7.17157C8.42143 7.92172 8 8.93913 8 10V11H5C4.73478 11 4.48043 11.1054 4.29289 11.2929C4.10536 11.4804 4 11.7348 4 12V23C4 23.7956 4.31607 24.5587 4.87868 25.1213C5.44129 25.6839 6.20435 26 7 26H17C17.7956 26 18.5587 25.6839 19.1213 25.1213C19.6839 24.5587 20 23.7956 20 23V12C20 11.7348 19.8946 11.4804 19.7071 11.2929C19.5196 11.1054 19.2652 11 19 11ZM10 10C10 9.46957 10.2107 8.96086 10.5858 8.58579C10.9609 8.21071 11.4696 8 12 8C12.5304 8 13.0391 8.21071 13.4142 8.58579C13.7893 8.96086 14 9.46957 14 10V11H10V10ZM18 23C18 23.2652 17.8946 23.5196 17.7071 23.7071C17.5196 23.8946 17.2652 24 17 24H7C6.73478 24 6.48043 23.8946 6.29289 23.7071C6.10536 23.5196 6 23.2652 6 23V13H8V14C8 14.2652 8.10536 14.5196 8.29289 14.7071C8.48043 14.8946 8.73478 15 9 15C9.26522 15 9.51957 14.8946 9.70711 14.7071C9.89464 14.5196 10 14.2652 10 14V13H14V14C14 14.2652 14.1054 14.5196 14.2929 14.7071C14.4804 14.8946 14.7348 15 15 15C15.2652 15 15.5196 14.8946 15.7071 14.7071C15.8946 14.5196 16 14.2652 16 14V13H18V23Z" fill="#050215"/>
<circle cx="21" cy="5" r="5" fill="#050215"/>
<path d="M20.9 2.818C20.92 2.806 20.95 2.8 20.99 2.8H21.716C21.736 2.8 21.752 2.808 21.764 2.824C21.78 2.836 21.788 2.852 21.788 2.872V6.928C21.788 6.948 21.78 6.966 21.764 6.982C21.752 6.994 21.736 7 21.716 7H21.014C20.994 7 20.976 6.994 20.96 6.982C20.948 6.966 20.942 6.948 20.942 6.928V3.64C20.942 3.632 20.938 3.624 20.93 3.616C20.922 3.608 20.914 3.606 20.906 3.61L20.312 3.772L20.288 3.778C20.252 3.778 20.234 3.756 20.234 3.712L20.216 3.196C20.216 3.156 20.234 3.128 20.27 3.112L20.9 2.818Z" fill="white"/>
</svg>
